<svg width="30" height="31" viewBox="0 0 30 31" fill="none" xmlns="http://www.w3.org/2000/svg">
<path fill-rule="evenodd" clip-rule="evenodd" d="M15 30.3901C23.2842 30.3901 30 23.6743 30 15.3901C30 7.10594 23.2842 0.390137 15 0.390137C6.7158 0.390137 0 7.10594 0 15.3901C0 23.6743 6.7158 30.3901 15 30.3901ZM21.5931 9.97334C21.7089 8.65934 20.3211 9.20054 20.3211 9.20054C19.2966 9.62474 18.24 10.0555 17.172 10.4911C13.86 11.842 10.4388 13.2376 7.5243 14.6113C5.9439 15.1909 6.8691 15.7705 6.8691 15.7705L9.3744 16.5436C10.5309 16.8916 11.1474 16.5049 11.1474 16.5049L16.5438 12.8335C18.471 11.5195 18.0084 12.6016 17.5458 13.0654L13.4988 16.93C12.882 17.4712 13.1904 17.935 13.4601 18.1669C14.2251 18.8416 16.1061 20.0761 16.9272 20.6149C17.1408 20.755 17.2827 20.8483 17.3148 20.8723C17.5074 21.0268 18.5481 21.7225 19.242 21.568C19.9359 21.4132 20.013 20.5243 20.013 20.5243L20.9379 14.4565C21.0765 13.4032 21.2358 12.3907 21.363 11.5819C21.483 10.8181 21.5745 10.2364 21.5931 9.97334Z" fill="#BD9840"/>
</svg>
