<svg width="30" height="31" viewBox="0 0 30 31" fill="none" xmlns="http://www.w3.org/2000/svg">
<path fill-rule="evenodd" clip-rule="evenodd" d="M15 30.3901C23.2842 30.3901 30 23.6743 30 15.3901C30 7.10594 23.2842 0.390137 15 0.390137C6.7158 0.390137 0 7.10594 0 15.3901C0 23.6743 6.7158 30.3901 15 30.3901ZM7.5 10.5901C7.6218 16.4365 10.545 19.9501 15.6699 19.9501H15.9603V16.6051C17.8437 16.7926 19.2675 18.1699 19.8393 19.9501H22.5C21.7692 17.2891 19.8486 15.8182 18.6492 15.256C19.8486 14.5627 21.5349 12.8761 21.9378 10.5901H19.5204C18.9957 12.4453 17.4408 14.1316 15.9603 14.2909V10.5901H13.5432V17.0734C12.0441 16.6987 10.1514 14.8813 10.0668 10.5901H7.5Z" fill="#BD9840"/>
</svg>
