<svg width="30" height="31" viewBox="0 0 30 31" fill="none" xmlns="http://www.w3.org/2000/svg">
<path fill-rule="evenodd" clip-rule="evenodd" d="M15 30.3901C23.2843 30.3901 30 23.6744 30 15.3901C30 7.10588 23.2843 0.390137 15 0.390137C6.71574 0.390137 0 7.10588 0 15.3901C0 23.6744 6.71574 30.3901 15 30.3901ZM20.9288 9.08798C19.3852 7.54244 17.3322 6.69095 15.145 6.69014C10.6385 6.69014 6.97038 10.3577 6.96876 14.8658C6.96822 16.3068 7.34469 17.7135 8.06004 18.9532L6.9 23.1901L11.2343 22.0533C12.4285 22.7048 13.7732 23.048 15.1414 23.0485H15.1447C19.6509 23.0485 23.319 19.3804 23.3209 14.8726C23.3222 12.6876 22.4727 10.6335 20.9288 9.08798ZM18.8726 16.5778C18.6682 16.4755 17.664 15.9814 17.4765 15.9132C17.2894 15.845 17.153 15.8109 17.0168 16.0155C16.8807 16.2201 16.4892 16.6801 16.37 16.8165C16.2508 16.9529 16.1315 16.9698 15.9275 16.8675C15.8941 16.8508 15.8485 16.831 15.7923 16.8066C15.5046 16.6818 14.9372 16.4358 14.2845 15.8534C13.6772 15.3116 13.2672 14.6427 13.148 14.4383C13.0287 14.2337 13.1351 14.1232 13.2374 14.0214C13.2988 13.9603 13.3692 13.8745 13.4396 13.7887C13.4747 13.746 13.5098 13.7032 13.5438 13.6635C13.6304 13.5624 13.668 13.4856 13.7191 13.3816C13.7282 13.3629 13.7378 13.3434 13.7482 13.3227C13.8164 13.1863 13.7823 13.0671 13.7312 12.9648C13.6972 12.8964 13.5035 12.4251 13.328 11.9978C13.2407 11.7853 13.1578 11.5837 13.1013 11.4479C12.9548 11.0962 12.8065 11.0971 12.6874 11.0979C12.6716 11.098 12.6563 11.0981 12.6416 11.0973C12.5226 11.0913 12.3862 11.0902 12.2501 11.0902C12.1139 11.0902 11.8927 11.1412 11.7053 11.3459C11.6932 11.3591 11.6797 11.3735 11.665 11.3891C11.4521 11.6164 10.9902 12.1096 10.9902 13.0502C10.9902 14.0533 11.7186 15.0226 11.8237 15.1625L11.8245 15.1635C11.8311 15.1723 11.843 15.1894 11.86 15.2138C12.1039 15.5636 13.3985 17.4209 15.3144 18.2483C15.802 18.4589 16.1823 18.5844 16.4791 18.6785C16.9685 18.834 17.4138 18.8122 17.766 18.7595C18.1586 18.7009 18.9746 18.2655 19.1448 17.7883C19.3151 17.3111 19.3151 16.9019 19.2641 16.8168C19.2229 16.7479 19.1264 16.7012 18.9833 16.632C18.949 16.6154 18.912 16.5975 18.8726 16.5778Z" fill="#BD9840"/>
</svg>
