<?xml version="1.0" encoding="UTF-8"?> <svg xmlns="http://www.w3.org/2000/svg" viewBox="1965.0767822265625 2460.048095703125 68.8104248046875 80.700927734375" width="68.8104248046875" height="80.700927734375"><path fill="#bd9840" stroke="none" fill-opacity="1" stroke-width="1" stroke-opacity="1" color="rgb(51, 51, 51)" fill-rule="evenodd" font-family="&quot;Helvetica Neue&quot;, Helvetica, Arial, sans-serif" font-size="14px" id="tSvg18ba8c27ba3" d="M 2031.384 2536.748 C 2029.4656666666667 2536.748 2027.5473333333334 2536.748 2025.629 2536.748 C 2025.152 2532.939 2023.509 2522.053 2019.695 2515.544 C 2015.8600000000001 2508.993 2009.7 2503.0190000000002 2007.055 2500.605 C 2009.682 2498.114 2015.855 2491.926 2019.695 2485.366 C 2023.546 2478.793 2025.185 2467.752 2025.644 2464.0480000000002 C 2027.5576666666666 2464.0480000000002 2029.4713333333334 2464.0480000000002 2031.385 2464.0480000000002 C 2032.5397005383793 2464.0480000000002 2033.2613883748663 2462.7980000000002 2032.6840381056766 2461.7980000000002 C 2032.4160889132456 2461.333898384862 2031.9208983848623 2461.0480000000002 2031.385 2461.0480000000002 C 2010.1163333333334 2461.0480000000002 1988.8476666666666 2461.0480000000002 1967.579 2461.0480000000002 C 1966.4242994616206 2461.0480000000002 1965.7026116251336 2462.2980000000002 1966.2799618943234 2463.2980000000002 C 1966.5479110867545 2463.762101615138 1967.0431016151379 2464.0480000000002 1967.579 2464.0480000000002 C 1969.494 2464.0480000000002 1971.409 2464.0480000000002 1973.324 2464.0480000000002 C 1973.783 2467.753 1975.418 2478.794 1979.268 2485.366 C 1983.115 2491.936 1989.04 2498.135 1991.527 2500.606 C 1989.023 2503.001 1983.11 2508.985 1979.269 2515.544 C 1975.455 2522.053 1973.816 2532.94 1973.339 2536.749 C 1971.4193333333333 2536.749 1969.4996666666666 2536.749 1967.58 2536.749 C 1966.4252994616209 2536.749 1965.7036116251338 2537.999 1966.2809618943234 2538.999 C 1966.5489110867545 2539.463101615138 1967.0441016151378 2539.749 1967.58 2539.749 C 1988.8483333333334 2539.749 2010.1166666666666 2539.749 2031.385 2539.749 C 2032.5400854380025 2539.7486134344585 2033.2615975600577 2538.497955164198 2032.6837200654772 2537.497815114117C 2032.4155261868907 2537.033648501511 2031.920077017399 2536.747820594308 2031.384 2536.748Z M 1981.856 2517.06 C 1986.49 2509.149 1994.621 2501.818 1994.703 2501.745 C 1995.3565434322695 2501.156657666737 1995.36762415985 2500.135383934703 1994.727 2499.533 C 1994.645 2499.456 1986.505 2491.79 1981.856 2483.849 C 1978.445 2478.026 1976.854 2467.885 1976.352 2464.047 C 1991.7733333333333 2464.047 2007.1946666666668 2464.047 2022.616 2464.047 C 2022.114 2467.883 2020.522 2478.02 2017.106 2483.849 C 2012.475 2491.762 2003.911 2499.43 2003.825 2499.506 C 2003.1459232655911 2500.112085662583 2003.1576994329505 2501.178064329671 2003.85 2501.769 C 2003.935 2501.842 2012.484 2509.165 2017.107 2517.059 C 2020.4850000000001 2522.826 2022.0810000000001 2532.826 2022.6 2536.747 C 2007.1886666666667 2536.747 1991.7773333333334 2536.747 1976.366 2536.747C 1976.883 2532.829 1978.474 2522.833 1981.856 2517.06Z"></path><path fill="#bd9840" stroke="none" fill-opacity="1" stroke-width="1" stroke-opacity="1" color="rgb(51, 51, 51)" fill-rule="evenodd" font-family="&quot;Helvetica Neue&quot;, Helvetica, Arial, sans-serif" font-size="14px" id="tSvg12cc209e250" d="M 2000.982 2518.531 C 2000.982 2510.853666666667 2000.982 2503.1763333333333 2000.982 2495.499 C 2005.5576666666666 2490.368 2010.1333333333334 2485.237 2014.709 2480.106 C 2015.4780305597153 2479.2446491240166 2015.0262349845407 2477.87380482503 2013.8957679645096 2477.638480262022 C 2013.7951848803016 2477.6175423045956 2013.692739256605 2477.6069935021987 2013.59 2477.607 C 2004.185 2477.607 1994.78 2477.607 1985.375 2477.607 C 1984.2202994639301 2477.606926970325 1983.498555050315 2478.856881325531 1984.075842072796 2479.8569178383686 C 1984.1272060738374 2479.9458958934547 1984.1875756548616 2480.0293614725983 1984.256 2480.106 C 1988.8316666666667 2485.237 1993.4073333333333 2490.368 1997.983 2495.499 C 1997.983 2503.1763333333333 1997.983 2510.853666666667 1997.983 2518.531 C 1993.3796666666667 2522.12 1988.7763333333332 2525.709 1984.173 2529.298 C 1983.2615515766336 2530.004428991259 1983.4566281261564 2531.432618972953 1984.5241377902394 2531.8687419661983 C 1984.705329365465 2531.9427664128116 1984.8992713951989 2531.980564705076 1985.095 2531.98 C 1994.6866666666667 2531.98 2004.2783333333334 2531.98 2013.87 2531.98 C 2015.0231561382056 2531.9833270207273 2015.74748022624 2530.7370782706116 2015.1737834416058 2529.736752250032 C 2015.076408188147 2529.566963953489 2014.9467028388813 2529.4179042837904 2014.792 2529.298C 2010.1886666666667 2525.709 2005.5853333333334 2522.12 2000.982 2518.531Z M 2010.241 2480.608 C 2006.6543333333334 2484.63 2003.0676666666666 2488.652 1999.481 2492.674 C 1995.8943333333334 2488.652 1992.3076666666666 2484.63 1988.721 2480.608C 1995.8943333333334 2480.608 2003.0676666666666 2480.608 2010.241 2480.608Z M 1989.457 2528.9809999999998 C 1992.7983333333334 2526.376 1996.1396666666667 2523.771 1999.481 2521.166 C 2002.8223333333333 2523.771 2006.1636666666666 2526.376 2009.505 2528.9809999999998C 2002.8223333333333 2528.9809999999998 1996.1396666666667 2528.9809999999998 1989.457 2528.9809999999998Z"></path><defs></defs></svg> 